<svg xmlns="http://www.w3.org/2000/svg" viewBox="0 0 600 420" role="img" aria-label="Asian elephant illustration">
<defs>
    <linearGradient id="bg1" x1="0" y1="0" x2="1" y2="1"><stop offset="0" stop-color="#a09994"/><stop offset="1" stop-color="#78716C"/></linearGradient>
    <linearGradient id="bg2" x1="0" y1="0" x2="1" y2="1"><stop offset="0" stop-color="#ffffff"/><stop offset="1" stop-color="#E7E5E4"/></linearGradient>
    <linearGradient id="bg3" x1="0" y1="0" x2="0" y2="1"><stop offset="0" stop-color="#b4ada8"/><stop offset="1" stop-color="#E7E5E4"/></linearGradient>
    <radialGradient id="scene" cx="0.5" cy="0.36" r="0.95"><stop offset="0" stop-color="#ffffff"/><stop offset="1" stop-color="#ffffff"/></radialGradient>
    <radialGradient id="glow" cx="0.5" cy="0.5" r="0.5"><stop offset="0" stop-color="#ffffff" stop-opacity="0.5"/><stop offset="1" stop-color="#ffffff" stop-opacity="0"/></radialGradient>
    <pattern id="tx" width="40" height="40" patternUnits="userSpaceOnUse"><rect width="40" height="40" fill="none"/><path d="M6 8 L14 6 L12 14 M26 20 L34 18 L32 28 M16 30 L24 28 L22 38" stroke="#b4ada8" stroke-width="1.6" fill="none" opacity="0.4"/></pattern>
  </defs>
<rect width="600" height="420" fill="url(#scene)"/>
<circle cx="298.18934202194214" cy="108.14420761540532" r="150" fill="url(#glow)"/>
<ellipse cx="300" cy="307" rx="234.1747896373272" ry="26" fill="#000000" opacity="0.10"/>
<ellipse cx="300" cy="307" rx="121.75551909022033" ry="14" fill="#000000" opacity="0.14"/>
<g fill="#ffffff" opacity="0.5"><circle cx="402.00761939398944" cy="71.12060180865228" r="4.425547799561173"/><circle cx="202.58277942426503" cy="137.75135072879493" r="3.594431649427861"/><circle cx="60.9153235796839" cy="113.30492573790252" r="3.2806959240697324"/></g>
<text x="30" y="53" font-size="44">🐘</text>
<g transform="translate(300 236) translate(-150 -150) scale(1)"><g transform="translate(0 -13)"><g stroke="#78716C" stroke-width="3" stroke-linecap="round" stroke-linejoin="round"><path d="M96 210 q-6 -58 54 -62 q60 4 54 62 Z" fill="url(#bg1)"/><path d="M96 210 q-6 -58 54 -62 q60 4 54 62 Z" fill="url(#tx)"/><path d="M112 152 q-26 -18 -44 -6 M188 152 q26 -18 44 -6" fill="url(#bg1)" stroke="#78716C"/><circle cx="172" cy="132" r="5" fill="#78716C"/><path d="M110 208 l-6 26 M134 210 l-2 26 M164 210 l4 26 M190 208 l8 24" fill="none"/><path d="M96 190 q-22 4 -34 -14 M96 206 q-20 10 -30 0" fill="none"/><path d="M86 156 q-20 18 -6 40 q12 20 26 6" fill="none"/><path d="M96 152 q-18 -10 -14 -26 M88 148 q-30 4 -44 26" fill="url(#bg1)" stroke="#78716C"/></g></g></g>
<g>
  <rect x="0" y="346" width="600" height="74" fill="#0f172a" opacity="0.78"/>
  <text x="30" y="382" font-family="ui-rounded, 'Segoe UI', system-ui, sans-serif" font-size="24" font-weight="700" fill="#ffffff">Asian elephant</text>
  <text x="30" y="406" font-family="ui-serif, Georgia, serif" font-size="15" font-style="italic" fill="#cbd5e1">Elephas maximus</text>
</g>
</svg>