<svg xmlns="http://www.w3.org/2000/svg" viewBox="0 0 600 420" role="img" aria-label="Canine parvovirus illustration">
<defs>
    <linearGradient id="bg1" x1="0" y1="0" x2="1" y2="1"><stop offset="0" stop-color="#ff4e4e"/><stop offset="1" stop-color="#DC2626"/></linearGradient>
    <linearGradient id="bg2" x1="0" y1="0" x2="1" y2="1"><stop offset="0" stop-color="#ffc3c3"/><stop offset="1" stop-color="#FCA5A5"/></linearGradient>
    <linearGradient id="bg3" x1="0" y1="0" x2="0" y2="1"><stop offset="0" stop-color="#ff6262"/><stop offset="1" stop-color="#FCA5A5"/></linearGradient>
    <radialGradient id="scene" cx="0.5" cy="0.36" r="0.95"><stop offset="0" stop-color="#ffcece"/><stop offset="1" stop-color="#ffffff"/></radialGradient>
    <radialGradient id="glow" cx="0.5" cy="0.5" r="0.5"><stop offset="0" stop-color="#ffffff" stop-opacity="0.5"/><stop offset="1" stop-color="#ffffff" stop-opacity="0"/></radialGradient>
    <pattern id="tx" width="4" height="4" patternUnits="userSpaceOnUse"><rect width="4" height="4" fill="none"/></pattern>
  </defs>
<rect width="600" height="420" fill="url(#scene)"/>
<circle cx="399.6006389707327" cy="151.94472170434892" r="150" fill="url(#glow)"/>
<ellipse cx="300" cy="307" rx="249.5793729275465" ry="26" fill="#000000" opacity="0.10"/>
<ellipse cx="300" cy="307" rx="159.68684371560812" ry="14" fill="#000000" opacity="0.14"/>
<g fill="#ffffff" opacity="0.5"><circle cx="46.19227858260274" cy="81.75786825828254" r="2.033545712241903"/><circle cx="342.05265313386917" cy="139.4832372199744" r="2.5018843298312277"/><circle cx="434.6823173575103" cy="118.10117442160845" r="2.3444427084177732"/></g>
<text x="30" y="64" font-size="44">🐶</text>
<g transform="translate(300 236) translate(-150 -150) scale(1)"><g transform="translate(0 -15)"><line x1="211.56596557233695" y1="157.323379216306" x2="235.39795224549962" y2="160.15823568713412" stroke="#DC2626" stroke-width="7" stroke-linecap="round" opacity="0.85"/><line x1="210.9053856327337" y1="161.59887929620768" x2="234.481663942179" y2="166.08876805603003" stroke="#DC2626" stroke-width="7" stroke-linecap="round" opacity="0.85"/><line x1="200.6140749318862" y1="185.80803567342684" x2="220.20662006680988" y2="199.6692107728179" stroke="#DC2626" stroke-width="7" stroke-linecap="round" opacity="0.85"/><line x1="189.37531151621738" y1="197.89138589559545" x2="204.61736758701122" y2="216.42998688743884" stroke="#DC2626" stroke-width="7" stroke-linecap="round" opacity="0.85"/><line x1="167.82739412150954" y1="209.38168083539205" x2="174.72832087822292" y2="232.36813793296318" stroke="#DC2626" stroke-width="7" stroke-linecap="round" opacity="0.85"/><line x1="165.57628897969352" y1="210.01149241287936" x2="171.60582019763942" y2="233.24174754044557" stroke="#DC2626" stroke-width="7" stroke-linecap="round" opacity="0.85"/><line x1="151.35935664299924" y1="211.9850961886576" x2="151.8855592144828" y2="235.97932697136378" stroke="#DC2626" stroke-width="7" stroke-linecap="round" opacity="0.85"/><line x1="113.67035181526515" y1="200.24098588576254" x2="99.60726219536778" y2="219.6891094544448" stroke="#DC2626" stroke-width="7" stroke-linecap="round" opacity="0.85"/><line x1="110.24211399232664" y1="197.5742630021827" x2="94.85196457000146" y2="215.9901067449631" stroke="#DC2626" stroke-width="7" stroke-linecap="round" opacity="0.85"/><line x1="100.54701206815815" y1="187.3952133917311" x2="81.4039199655097" y2="201.8707798659496" stroke="#DC2626" stroke-width="7" stroke-linecap="round" opacity="0.85"/><line x1="94.12321164204823" y1="176.86604777038607" x2="72.49348711638949" y2="187.26580819763228" stroke="#DC2626" stroke-width="7" stroke-linecap="round" opacity="0.85"/><line x1="89.15453515384758" y1="138.0907847590352" x2="65.60145198759501" y2="133.4807659560811" stroke="#DC2626" stroke-width="7" stroke-linecap="round" opacity="0.85"/><line x1="94.08378707701806" y1="123.21610311489854" x2="72.43880142941215" y2="112.84814303034312" stroke="#DC2626" stroke-width="7" stroke-linecap="round" opacity="0.85"/><line x1="98.01190520348933" y1="116.21778575301758" x2="77.88748141129167" y2="103.14079959289535" stroke="#DC2626" stroke-width="7" stroke-linecap="round" opacity="0.85"/><line x1="101.80273044687846" y1="110.99970246749722" x2="83.14572287792816" y2="95.90281310007678" stroke="#DC2626" stroke-width="7" stroke-linecap="round" opacity="0.85"/><line x1="126.76960318562934" y1="92.51653573551019" x2="117.77719151555037" y2="70.26487214925606" stroke="#DC2626" stroke-width="7" stroke-linecap="round" opacity="0.85"/><line x1="149.2820525588829" y1="88.0041569823283" x2="149.00413742038597" y2="64.00576613677795" stroke="#DC2626" stroke-width="7" stroke-linecap="round" opacity="0.85"/><line x1="153.61739544085412" y1="88.10561858920886" x2="155.0176775469912" y2="64.14650320438648" stroke="#DC2626" stroke-width="7" stroke-linecap="round" opacity="0.85"/><line x1="171.41770053577574" y1="91.81682284577585" x2="179.70842332381795" y2="69.29430265704391" stroke="#DC2626" stroke-width="7" stroke-linecap="round" opacity="0.85"/><line x1="192.55407527297558" y1="104.90952786162106" x2="209.02662053993384" y2="87.45515154999049" stroke="#DC2626" stroke-width="7" stroke-linecap="round" opacity="0.85"/><line x1="203.62395394343886" y1="118.87972423849769" x2="224.38161353444744" y2="106.83316587920648" stroke="#DC2626" stroke-width="7" stroke-linecap="round" opacity="0.85"/><line x1="205.96987212101837" y1="123.32841559342883" x2="227.63562907109002" y2="113.00393130701417" stroke="#DC2626" stroke-width="7" stroke-linecap="round" opacity="0.85"/><circle cx="150" cy="150" r="62" fill="url(#bg1)" stroke="#DC2626" stroke-width="3"/><circle cx="150" cy="150" r="62" fill="url(#tx)"/><circle cx="128" cy="126" r="14" fill="#ffffff" opacity="0.3"/></g></g>
<g>
  <rect x="0" y="346" width="600" height="74" fill="#0f172a" opacity="0.78"/>
  <text x="30" y="382" font-family="ui-rounded, 'Segoe UI', system-ui, sans-serif" font-size="24" font-weight="700" fill="#ffffff">Canine parvovirus</text>
  <text x="30" y="406" font-family="ui-serif, Georgia, serif" font-size="15" font-style="italic" fill="#cbd5e1">Carnivore protoparvovirus 1</text>
</g>
</svg>