<svg xmlns="http://www.w3.org/2000/svg" viewBox="0 0 600 420" role="img" aria-label="Caterpillar fungus illustration">
<defs>
    <linearGradient id="bg1" x1="0" y1="0" x2="1" y2="1"><stop offset="0" stop-color="#ff9b3e"/><stop offset="1" stop-color="#F97316"/></linearGradient>
    <linearGradient id="bg2" x1="0" y1="0" x2="1" y2="1"><stop offset="0" stop-color="#ffffa8"/><stop offset="1" stop-color="#FDE68A"/></linearGradient>
    <linearGradient id="bg3" x1="0" y1="0" x2="0" y2="1"><stop offset="0" stop-color="#ffaf52"/><stop offset="1" stop-color="#FDE68A"/></linearGradient>
    <radialGradient id="scene" cx="0.5" cy="0.36" r="0.95"><stop offset="0" stop-color="#ffffbe"/><stop offset="1" stop-color="#fffff4"/></radialGradient>
    <radialGradient id="glow" cx="0.5" cy="0.5" r="0.5"><stop offset="0" stop-color="#ffffff" stop-opacity="0.5"/><stop offset="1" stop-color="#ffffff" stop-opacity="0"/></radialGradient>
    <pattern id="tx" width="4" height="4" patternUnits="userSpaceOnUse"><rect width="4" height="4" fill="none"/></pattern>
  </defs>
<rect width="600" height="420" fill="url(#scene)"/>
<circle cx="209.4530975818634" cy="195.90923697687685" r="150" fill="url(#glow)"/>
<ellipse cx="300" cy="306" rx="247.11786217521876" ry="26" fill="#000000" opacity="0.10"/>
<ellipse cx="300" cy="306" rx="125.8981488738209" ry="14" fill="#000000" opacity="0.14"/>
<g fill="#ffffff" opacity="0.5"><circle cx="471.6024653054774" cy="96.61157820373774" r="1.536729523446411"/><circle cx="54.493951108306646" cy="70.9203442838043" r="4.0569209810346365"/><circle cx="394.4709789939225" cy="134.17231068015099" r="3.8243864730466157"/></g>
<text x="30" y="63" font-size="44">🐛</text>
<g transform="translate(300 236) translate(-150 -150) scale(1)"><g transform="translate(0 -3)"><path d="M146 236 q-6 -60 4 -150" stroke="#FDE68A" stroke-width="7" fill="none"/><circle cx="126.96450882218778" cy="200" r="10" fill="url(#bg1)" stroke="#F97316" stroke-width="2.6"/><circle cx="170.66581792384386" cy="174" r="9.2" fill="url(#bg1)" stroke="#F97316" stroke-width="2.6"/><circle cx="123.09463937301189" cy="148" r="8.4" fill="url(#bg1)" stroke="#F97316" stroke-width="2.6"/><circle cx="173.91452670190483" cy="122" r="7.6" fill="url(#bg1)" stroke="#F97316" stroke-width="2.6"/><circle cx="123.9751207921654" cy="96" r="6.8" fill="url(#bg1)" stroke="#F97316" stroke-width="2.6"/><circle cx="177.92599577642977" cy="70" r="6" fill="url(#bg1)" stroke="#F97316" stroke-width="2.6"/><circle cx="150" cy="86" r="13" fill="#FDE68A"/></g></g>
<g>
  <rect x="0" y="346" width="600" height="74" fill="#0f172a" opacity="0.78"/>
  <text x="30" y="382" font-family="ui-rounded, 'Segoe UI', system-ui, sans-serif" font-size="24" font-weight="700" fill="#ffffff">Caterpillar fungus</text>
  <text x="30" y="406" font-family="ui-serif, Georgia, serif" font-size="15" font-style="italic" fill="#cbd5e1">Ophiocordyceps sinensis</text>
</g>
</svg>