<svg xmlns="http://www.w3.org/2000/svg" viewBox="0 0 600 420" role="img" aria-label="Chicken of the woods illustration">
<defs>
    <linearGradient id="bg1" x1="0" y1="0" x2="1" y2="1"><stop offset="0" stop-color="#7f7b76"/><stop offset="1" stop-color="#57534E"/></linearGradient>
    <linearGradient id="bg2" x1="0" y1="0" x2="1" y2="1"><stop offset="0" stop-color="#ffffff"/><stop offset="1" stop-color="#FAFAF9"/></linearGradient>
    <linearGradient id="bg3" x1="0" y1="0" x2="0" y2="1"><stop offset="0" stop-color="#938f8a"/><stop offset="1" stop-color="#FAFAF9"/></linearGradient>
    <radialGradient id="scene" cx="0.5" cy="0.36" r="0.95"><stop offset="0" stop-color="#fffbf6"/><stop offset="1" stop-color="#ffffff"/></radialGradient>
    <radialGradient id="glow" cx="0.5" cy="0.5" r="0.5"><stop offset="0" stop-color="#ffffff" stop-opacity="0.5"/><stop offset="1" stop-color="#ffffff" stop-opacity="0"/></radialGradient>
    <pattern id="tx" width="4" height="4" patternUnits="userSpaceOnUse"><rect width="4" height="4" fill="none"/></pattern>
  </defs>
<rect width="600" height="420" fill="url(#scene)"/>
<circle cx="281.62931464612484" cy="122.146877059713" r="150" fill="url(#glow)"/>
<ellipse cx="300" cy="312" rx="213.35109894163907" ry="26" fill="#000000" opacity="0.10"/>
<ellipse cx="300" cy="312" rx="154.05257265083492" ry="14" fill="#000000" opacity="0.14"/>
<g fill="#ffffff" opacity="0.5"><circle cx="331.5424528438598" cy="95.99593386985362" r="1.8841858429368585"/><circle cx="479.1840913146734" cy="119.13930651731789" r="1.5889784332830459"/><circle cx="166.84325585141778" cy="121.48112803697586" r="4.4861589793581516"/></g>
<text x="30" y="66" font-size="44">🐔</text>
<g transform="translate(300 236) translate(-150 -150) scale(1)"><g transform="translate(0 -14)"><path d="M76 150 q74 -92 148 0 Z" fill="url(#bg1)" stroke="#57534E" stroke-width="3"/><path d="M76 150 q74 -92 148 0 Z" fill="url(#tx)"/><rect x="136" y="150" width="28" height="58" fill="#FAFAF9" stroke="#989692" stroke-width="3"/><line x1="150" y1="150" x2="150" y2="168" stroke="#57534E" stroke-width="3"/></g></g>
<g>
  <rect x="0" y="346" width="600" height="74" fill="#0f172a" opacity="0.78"/>
  <text x="30" y="382" font-family="ui-rounded, 'Segoe UI', system-ui, sans-serif" font-size="24" font-weight="700" fill="#ffffff">Chicken of the woods</text>
  <text x="30" y="406" font-family="ui-serif, Georgia, serif" font-size="15" font-style="italic" fill="#cbd5e1">Laetiporus sulphureus</text>
</g>
</svg>