<svg xmlns="http://www.w3.org/2000/svg" viewBox="0 0 600 420" role="img" aria-label="Leopard illustration">
<defs>
    <linearGradient id="bg1" x1="0" y1="0" x2="1" y2="1"><stop offset="0" stop-color="#ffc633"/><stop offset="1" stop-color="#F59E0B"/></linearGradient>
    <linearGradient id="bg2" x1="0" y1="0" x2="1" y2="1"><stop offset="0" stop-color="#ffffe5"/><stop offset="1" stop-color="#FEF3C7"/></linearGradient>
    <linearGradient id="bg3" x1="0" y1="0" x2="0" y2="1"><stop offset="0" stop-color="#ffda47"/><stop offset="1" stop-color="#FEF3C7"/></linearGradient>
    <radialGradient id="scene" cx="0.5" cy="0.36" r="0.95"><stop offset="0" stop-color="#ffffb3"/><stop offset="1" stop-color="#ffffff"/></radialGradient>
    <radialGradient id="glow" cx="0.5" cy="0.5" r="0.5"><stop offset="0" stop-color="#ffffff" stop-opacity="0.5"/><stop offset="1" stop-color="#ffffff" stop-opacity="0"/></radialGradient>
    <pattern id="tx" width="46" height="46" patternUnits="userSpaceOnUse"><rect width="46" height="46" fill="none"/><circle cx="12" cy="12" r="6.5" fill="#ffda47" opacity="0.55"/><circle cx="36" cy="34" r="5" fill="#ffda47" opacity="0.5"/></pattern>
  </defs>
<rect width="600" height="420" fill="url(#scene)"/>
<circle cx="218.58068712055683" cy="91.50995699688792" r="150" fill="url(#glow)"/>
<ellipse cx="300" cy="310" rx="258.4408784843981" ry="26" fill="#000000" opacity="0.10"/>
<ellipse cx="300" cy="310" rx="123.93928981386125" ry="14" fill="#000000" opacity="0.14"/>

<text x="30" y="62" font-size="44">🐆</text>
<g transform="translate(300 236) translate(-150 -150) scale(1)"><g transform="translate(0 -2)"><g stroke="#F59E0B" stroke-width="3" stroke-linecap="round" stroke-linejoin="round"><path d="M96 210 q-6 -58 54 -62 q60 4 54 62 Z" fill="url(#bg1)"/><path d="M112 152 q-26 -18 -44 -6 M188 152 q26 -18 44 -6" fill="url(#bg1)" stroke="#F59E0B"/><circle cx="172" cy="132" r="5" fill="#F59E0B"/><path d="M110 208 l-6 26 M134 210 l-2 26 M164 210 l4 26 M190 208 l8 24" fill="none"/><path d="M204 194 q34 6 40 26 q6 20 -8 24" fill="none"/></g><path d="M96 210 q-6 -58 54 -62 q60 4 54 62 Z" fill="url(#tx)" opacity="0.9"/></g></g>
<g>
  <rect x="0" y="346" width="600" height="74" fill="#0f172a" opacity="0.78"/>
  <text x="30" y="382" font-family="ui-rounded, 'Segoe UI', system-ui, sans-serif" font-size="24" font-weight="700" fill="#ffffff">Leopard</text>
  <text x="30" y="406" font-family="ui-serif, Georgia, serif" font-size="15" font-style="italic" fill="#cbd5e1">Panthera pardus</text>
</g>
</svg>