<svg xmlns="http://www.w3.org/2000/svg" viewBox="0 0 600 420" role="img" aria-label="Shagbark hickory illustration">
<defs>
    <linearGradient id="bg1" x1="0" y1="0" x2="1" y2="1"><stop offset="0" stop-color="#75a437"/><stop offset="1" stop-color="#4D7C0F"/></linearGradient>
    <linearGradient id="bg2" x1="0" y1="0" x2="1" y2="1"><stop offset="0" stop-color="#a88b59"/><stop offset="1" stop-color="#8A6D3B"/></linearGradient>
    <linearGradient id="bg3" x1="0" y1="0" x2="0" y2="1"><stop offset="0" stop-color="#89b84b"/><stop offset="1" stop-color="#8A6D3B"/></linearGradient>
    <radialGradient id="scene" cx="0.5" cy="0.36" r="0.95"><stop offset="0" stop-color="#f5ffb7"/><stop offset="1" stop-color="#ffffd1"/></radialGradient>
    <radialGradient id="glow" cx="0.5" cy="0.5" r="0.5"><stop offset="0" stop-color="#ffffff" stop-opacity="0.5"/><stop offset="1" stop-color="#ffffff" stop-opacity="0"/></radialGradient>
    
  </defs>
<rect width="600" height="420" fill="url(#scene)"/>
<circle cx="170.26366978883743" cy="134.20262871310115" r="150" fill="url(#glow)"/>
<ellipse cx="300" cy="306" rx="243.31318153068423" ry="26" fill="#000000" opacity="0.10"/>
<ellipse cx="300" cy="306" rx="147.00417277403176" ry="14" fill="#000000" opacity="0.14"/>

<text x="30" y="59" font-size="44">🌰</text>
<g transform="translate(300 236) translate(-150 -150) scale(1)"><g transform="translate(0 -9)"><path d="M138 210 q-6 -70 12 -128 q18 58 12 128 Z" fill="#8A6D3B" stroke="#657621" stroke-width="3"/><circle cx="92" cy="92" r="44" fill="url(#bg1)" stroke="#4D7C0F" stroke-width="3"/><circle cx="150" cy="64" r="56" fill="url(#bg1)" stroke="#4D7C0F" stroke-width="3"/><circle cx="206" cy="96" r="42" fill="url(#bg1)" stroke="#4D7C0F" stroke-width="3"/><circle cx="124" cy="52" r="36" fill="url(#bg1)" stroke="#4D7C0F" stroke-width="3"/><circle cx="150" cy="64" r="56" fill="url(#tx)" opacity="0.8"/></g></g>
<g>
  <rect x="0" y="346" width="600" height="74" fill="#0f172a" opacity="0.78"/>
  <text x="30" y="382" font-family="ui-rounded, 'Segoe UI', system-ui, sans-serif" font-size="24" font-weight="700" fill="#ffffff">Shagbark hickory</text>
  <text x="30" y="406" font-family="ui-serif, Georgia, serif" font-size="15" font-style="italic" fill="#cbd5e1">Carya ovata</text>
</g>
</svg>