<svg xmlns="http://www.w3.org/2000/svg" viewBox="0 0 600 420" role="img" aria-label="Weeping willow illustration">
<defs>
    <linearGradient id="bg1" x1="0" y1="0" x2="1" y2="1"><stop offset="0" stop-color="#cbff5d"/><stop offset="1" stop-color="#A3E635"/></linearGradient>
    <linearGradient id="bg2" x1="0" y1="0" x2="1" y2="1"><stop offset="0" stop-color="#a88b59"/><stop offset="1" stop-color="#8A6D3B"/></linearGradient>
    <linearGradient id="bg3" x1="0" y1="0" x2="0" y2="1"><stop offset="0" stop-color="#dfff71"/><stop offset="1" stop-color="#8A6D3B"/></linearGradient>
    <radialGradient id="scene" cx="0.5" cy="0.36" r="0.95"><stop offset="0" stop-color="#ffffdd"/><stop offset="1" stop-color="#ffffe7"/></radialGradient>
    <radialGradient id="glow" cx="0.5" cy="0.5" r="0.5"><stop offset="0" stop-color="#ffffff" stop-opacity="0.5"/><stop offset="1" stop-color="#ffffff" stop-opacity="0"/></radialGradient>
    
  </defs>
<rect width="600" height="420" fill="url(#scene)"/>
<circle cx="361.37432031333447" cy="171.06909119524062" r="150" fill="url(#glow)"/>
<ellipse cx="300" cy="312" rx="248.31715241074562" ry="26" fill="#000000" opacity="0.10"/>
<ellipse cx="300" cy="312" rx="136.66883549652994" ry="14" fill="#000000" opacity="0.14"/>
<g fill="#ffffff" opacity="0.5"><circle cx="482.0323630608618" cy="133.3016626443714" r="1.8562004480045289"/><circle cx="122.85508817061782" cy="65.57014567777514" r="3.047925401246175"/><circle cx="556.5961808431894" cy="120.12854831293225" r="3.650789060164243"/></g>
<text x="30" y="55" font-size="44">🌳</text>
<g transform="translate(300 236) translate(-150 -150) scale(1)"><g transform="translate(0 -9)"><path d="M138 210 q-6 -70 12 -128 q18 58 12 128 Z" fill="#8A6D3B" stroke="#99b637" stroke-width="3"/><circle cx="92" cy="92" r="44" fill="url(#bg1)" stroke="#A3E635" stroke-width="3"/><circle cx="150" cy="64" r="56" fill="url(#bg1)" stroke="#A3E635" stroke-width="3"/><circle cx="206" cy="96" r="42" fill="url(#bg1)" stroke="#A3E635" stroke-width="3"/><circle cx="124" cy="52" r="36" fill="url(#bg1)" stroke="#A3E635" stroke-width="3"/><circle cx="150" cy="64" r="56" fill="url(#tx)" opacity="0.8"/></g></g>
<g>
  <rect x="0" y="346" width="600" height="74" fill="#0f172a" opacity="0.78"/>
  <text x="30" y="382" font-family="ui-rounded, 'Segoe UI', system-ui, sans-serif" font-size="24" font-weight="700" fill="#ffffff">Weeping willow</text>
  <text x="30" y="406" font-family="ui-serif, Georgia, serif" font-size="15" font-style="italic" fill="#cbd5e1">Salix babylonica</text>
</g>
</svg>