<svg xmlns="http://www.w3.org/2000/svg" viewBox="0 0 600 420" role="img" aria-label="Whale shark illustration">
<defs>
    <linearGradient id="bg1" x1="0" y1="0" x2="1" y2="1"><stop offset="0" stop-color="#8c9cb3"/><stop offset="1" stop-color="#64748B"/></linearGradient>
    <linearGradient id="bg2" x1="0" y1="0" x2="1" y2="1"><stop offset="0" stop-color="#ffffff"/><stop offset="1" stop-color="#E2E8F0"/></linearGradient>
    <linearGradient id="bg3" x1="0" y1="0" x2="0" y2="1"><stop offset="0" stop-color="#a0b0c7"/><stop offset="1" stop-color="#E2E8F0"/></linearGradient>
    <radialGradient id="scene" cx="0.5" cy="0.36" r="0.95"><stop offset="0" stop-color="#ffffff"/><stop offset="1" stop-color="#ffffff"/></radialGradient>
    <radialGradient id="glow" cx="0.5" cy="0.5" r="0.5"><stop offset="0" stop-color="#ffffff" stop-opacity="0.5"/><stop offset="1" stop-color="#ffffff" stop-opacity="0"/></radialGradient>
    <pattern id="tx" width="24" height="24" patternUnits="userSpaceOnUse"><rect width="24" height="24" fill="none"/><circle cx="6" cy="6" r="2.6" fill="#a0b0c7" opacity="0.6"/><circle cx="18" cy="18" r="2.6" fill="#a0b0c7" opacity="0.6"/></pattern>
  </defs>
<rect width="600" height="420" fill="url(#scene)"/>
<circle cx="223.44225227832794" cy="139.55707476474345" r="150" fill="url(#glow)"/>
<ellipse cx="300" cy="311" rx="259.5952987577766" ry="26" fill="#000000" opacity="0.10"/>
<ellipse cx="300" cy="311" rx="134.30515316314995" ry="14" fill="#000000" opacity="0.14"/>
<g fill="#ffffff" opacity="0.5"><circle cx="361.9015843141824" cy="43.874132968485355" r="3.354593593860045"/><circle cx="473.4826473146677" cy="124.06478084623814" r="2.4031981711741537"/><circle cx="245.09092551656067" cy="89.72038064152002" r="4.139606078155339"/></g>
<text x="30" y="58" font-size="44">🦈</text>
<g transform="translate(300 236) translate(-150 -150) scale(1)"><g transform="translate(0 -15)"><path d="M44 160 q40 -46 104 -46 q56 0 100 30 q20 14 22 26 q-2 16 -22 30 q-44 30 -100 30 q-64 0 -104 -46 Z" fill="url(#bg1)" stroke="#64748B" stroke-width="3" stroke-linejoin="round"/><path d="M44 160 q40 -46 104 -46 q56 0 100 30 q20 14 22 26 q-2 16 -22 30 q-44 30 -100 30 q-64 0 -104 -46 Z" fill="url(#tx)"/><path d="M112 92 q30 -30 58 -34 q-2 26 -26 40" fill="url(#bg2)" stroke="#64748B" stroke-width="3"/><circle cx="76" cy="148" r="4" fill="#1c1917"/><path d="M120 170 q16 14 14 30 q-16 -8 -14 -30 Z" fill="#E2E8F0" stroke="#64748B" stroke-width="2.6"/></g></g>
<g>
  <rect x="0" y="346" width="600" height="74" fill="#0f172a" opacity="0.78"/>
  <text x="30" y="382" font-family="ui-rounded, 'Segoe UI', system-ui, sans-serif" font-size="24" font-weight="700" fill="#ffffff">Whale shark</text>
  <text x="30" y="406" font-family="ui-serif, Georgia, serif" font-size="15" font-style="italic" fill="#cbd5e1">Rhincodon typus</text>
</g>
</svg>